<?xml version="1.0" encoding="utf-8"?>
<!-- Generator: Adobe Illustrator 22.1.0, SVG Export Plug-In . SVG Version: 6.00 Build 0)  -->
<svg version="1.1" id="Слой_1" xmlns="http://www.w3.org/2000/svg" xmlns:xlink="http://www.w3.org/1999/xlink" x="0px" y="0px"
	 viewBox="0 0 376.1 376.1" style="enable-background:new 0 0 376.1 376.1;" xml:space="preserve">
<style type="text/css">
	.st0{fill:#333333;}
</style>
<g>
	<path class="st0" d="M260.2,0H115.9C51.9,0,0,51.9,0,115.9v144.3c0,64,51.9,115.9,115.9,115.9h144.3c64,0,115.9-51.9,115.9-115.9
		V115.9C376.1,51.9,324.2,0,260.2,0z M340,246.4c0,51.7-41.9,93.6-93.6,93.6H129.7c-51.7,0-93.6-41.9-93.6-93.6V129.7
		c0-51.7,41.9-93.6,93.6-93.6h116.6c51.7,0,93.6,41.9,93.6,93.6V246.4z"/>
	<path class="st0" d="M193.1,89.6C138.4,89.6,94,134,94,188.7c0,54.7,44.3,99.1,99.1,99.1c54.7,0,99.1-44.4,99.1-99.1
		C292.1,134,247.8,89.6,193.1,89.6z M193.1,248.3c-32.9,0-59.6-26.7-59.6-59.6c0-32.9,26.7-59.6,59.6-59.6
		c32.9,0,59.6,26.7,59.6,59.6C252.7,221.6,226,248.3,193.1,248.3z"/>
	<path class="st0" d="M310.5,88.1c0,13.9-11.3,25.2-25.2,25.2c-13.9,0-25.2-11.3-25.2-25.2c0-13.9,11.3-25.2,25.2-25.2
		C299.2,62.9,310.5,74.2,310.5,88.1z"/>
</g>
</svg>
