<?xml version="1.0" encoding="utf-8"?>
<!-- Generator: Adobe Illustrator 22.1.0, SVG Export Plug-In . SVG Version: 6.00 Build 0)  -->
<svg version="1.1" id="Слой_1" xmlns="http://www.w3.org/2000/svg" xmlns:xlink="http://www.w3.org/1999/xlink" x="0px" y="0px"
	 viewBox="0 0 125.7 204.1" style="enable-background:new 0 0 125.7 204.1;" xml:space="preserve">
<style type="text/css">
	.st0{fill:#cccccc;}
	.st1{display:none;fill:#F0F0F1;}
	.st2{font-family:'GreatVibes-Regular';}
	.st3{font-size:25.7891px;}
	.st4{letter-spacing:-1;}
	.st5{display:none;}
	.st6{display:inline;fill:#4C4C4C;}
	.st7{font-family:'Alegreya-Regular';}
	.st8{font-size:38.8464px;}
	.st9{letter-spacing:-2;}
	.st10{fill:#F0F0F1;}
</style>
<g>
	<g>
		<g>
			<g>
				<path class="st0" d="M117.6,97.6c0-4,0-7.3,0-9.9c-0.1-22.4-7.4-28.3-10.9-31.5c-3.9-3.6-5.5-5.4-5.7-6.6
					c-0.2-1.2-0.2-38.5-0.2-38.5l1.2,0l0-6.7l-1.3,0l0-4.4l-8.1,0h-0.2l-8.1,0l0,4.4l-1.3,0l0,6.7l1.2,0c0,0,0.3,37.2,0.2,38.5
					c-0.1,1.2-1.7,3.1-5.6,6.7c-3.4,3.2-10.7,9.2-10.6,31.6c0,2.6,0,5.9,0,9.9L117.6,97.6z"/>
				<path class="st0" d="M117.7,136l-49.5,0.2c0.1,28.7,0.3,58.3,0.3,58.3s-0.1,4.2,1.9,5.7c2,1.4,6.7,4.2,22.9,3.8
					c16.2,0.2,20.8-2.6,22.8-4.1c2-1.5,1.9-5.7,1.9-5.7S117.9,164.8,117.7,136z"/>
			</g>
			<text transform="matrix(1 -4.790001e-03 5.269001e-03 1.1 70.2692 161.9215)" class="st1 st2 st3 st4">Shop</text>
			<g class="st5">
				<text transform="matrix(1 -4.790001e-03 5.269001e-03 1.1 47.1649 130.4195)" class="st6 st7 st8 st9">WINE</text>
			</g>
		</g>
		<g>
			<g>
				
					<rect x="39.3" y="106" transform="matrix(0.8641 -0.5034 0.5034 0.8641 -55.2147 37.2043)" class="st0" width="4" height="29.6"/>
				<path class="st0" d="M55.9,81.3c0,0-2.6-2.9-5.8-0.4C47,83.5,49,85,38.2,89.4c-10.4,4.2-10,4-12.2,5.2c-2.1,1.2-1.6,1-10.3,7.9
					c-9,7.1-9.4,4.6-13.1,6.1c-3.7,1.5-2.4,5.2-2.4,5.2c1.4,5.5,6.4,10.2,8.6,9.8c2.2-0.5,3.7-3.8,7.9-6.5
					c4.1-2.6,16.4-7.9,17.5-8.4l0,0c0,0,0,0,0,0c0,0,0,0,0,0l0,0c1-0.7,11.8-9,16.1-11.3c4.5-2.4,8.2-2.1,9.7-3.8
					C61.7,91.9,60,85.3,55.9,81.3z"/>
			</g>
			<path class="st0" d="M50.5,136.1c0-0.7,0.1-2.1,0-3.1c-0.1-1.3-1.8-1-2.8-1.1c-1-0.1-1.6,0.8-1.6,0.8s1,0.5,1.9,1.6
				c0.6,0.7,0.2,1.7,0.1,2.5c0,0,0,0,0,0.1c-0.2,1-0.6,2.9,0.6,3.4c0.9,0.4,1.8,0.5,2.7,0.7c0.2,0.1,0.3,0.2,0.4,0.3
				c0.6,0.7,0.2,1.7,0.2,2.5c0,0,0,0,0,0c-0.2,1-0.6,2.9,0.6,3.4c0.1,0,0.2,0.1,0.4,0.1c0,0,0,0,0,0s0,0,0,0c0.9,0.3,2,0.6,2.6,0.7
				c0,0,0.1,0.1,0.1,0.1c0.6,0.7,0.2,1.7,0.1,2.5c0,0,0,0,0,0.1c-0.2,1-0.6,2.9,0.6,3.4c0.9,0.4,1.8,0.5,2.7,0.7
				c0.2,0.1,0.3,0.2,0.4,0.3c0.6,0.7,0.2,1.7,0.2,2.5c0,0,0,0,0,0c-0.2,1-0.6,2.9,0.6,3.4c1.1,0.4,2.8,0.8,3.2,0.9
				c-0.1,0.6-0.1,2.2,1,3.6c0.5,0.7,2.1-0.6,2.1-0.6c-3.3-1.5-1.3-4.5-1.1-4.8l0,0c0,0,0,0,0,0l0,0c0,0,0,0,0,0
				c-0.7-0.8-2.3-0.3-2.9-1.4c-0.3-0.6-0.4-1.2-0.4-1.8c0-0.7,0.1-2.1,0-3.1c-0.1-0.6-0.4-0.9-0.9-1c-0.8-0.3-1.9-0.1-2.5-1
				c-0.3-0.6-0.4-1.2-0.5-1.8c0-0.7,0.1-2.1,0-3.1c-0.1-0.7-0.6-0.9-1.2-1c-0.7-0.2-1.7-0.2-2.2-1c-0.3-0.6-0.4-1.2-0.5-1.8
				c0-0.7,0.1-2.1,0-3.1c-0.1-0.6-0.4-0.9-0.9-1c-0.8-0.3-1.9-0.1-2.5-1C50.7,137.3,50.6,136.6,50.5,136.1z"/>
		</g>
	</g>
	<path class="st10" d="M81.8,57.4c0,0-11.4,6.8-10.6,31.6l1.9-0.1C73.1,88.9,71.5,69.4,81.8,57.4z"/>
	<polygon class="st10" points="71.2,167.4 73.1,167.4 73.1,197.7 71.4,197.7 	"/>
</g>
</svg>
