<?xml version="1.0" encoding="utf-8"?>
<!-- Generator: Adobe Illustrator 22.1.0, SVG Export Plug-In . SVG Version: 6.00 Build 0)  -->
<svg version="1.1" id="Слой_1" xmlns="http://www.w3.org/2000/svg" xmlns:xlink="http://www.w3.org/1999/xlink" x="0px" y="0px"
	 viewBox="0 0 121.9 99.2" style="enable-background:new 0 0 121.9 99.2;" xml:space="preserve">
<style type="text/css">
	.st0{fill:#333333;}
</style>
<path class="st0" d="M38.3,99.1c46,0,71.2-38.1,71.2-71.2c0-1.1,0-2.2-0.1-3.2c4.9-3.5,9.1-7.9,12.5-13c-4.5,2-9.3,3.3-14.4,3.9
	c5.2-3.1,9.1-8,11-13.8c-4.8,2.9-10.2,5-15.9,6.1C98.1,3,91.6,0,84.4,0c-13.8,0-25,11.2-25,25c0,2,0.2,3.9,0.6,5.7
	c-20.8-1.1-39.2-11-51.6-26.1c-2.1,3.7-3.4,8-3.4,12.6c0,8.7,4.4,16.3,11.1,20.8c-4.1-0.1-8-1.3-11.3-3.1c0,0.1,0,0.2,0,0.3
	c0,12.1,8.6,22.2,20.1,24.5c-2.1,0.6-4.3,0.9-6.6,0.9c-1.6,0-3.2-0.2-4.7-0.5c3.2,10,12.4,17.2,23.4,17.4
	C28.5,84.2,17.7,88.2,6,88.2c-2,0-4-0.1-6-0.3C11.1,95,24.2,99.1,38.3,99.1"/>
</svg>
